<svg width="138" height="44" viewBox="0 0 138 44" fill="none" xmlns="http://www.w3.org/2000/svg">
<path d="M22.296 37.4739C15 37.4739 8.92001 32.2899 7.44801 25.3779C7.25601 24.3539 7.12801 23.3299 7.12801 22.2419C7.12801 21.2179 7.25601 20.1939 7.44801 19.2339C8.79201 12.3219 15 7.07388 22.296 7.07388C28.632 7.07388 34.008 10.8499 36.312 16.2899H42.84C40.28 7.39388 32.024 0.929878 22.296 0.929878C11.544 0.929878 2.64801 8.86588 1.17601 19.2339C1.04801 20.2579 0.984009 21.2179 0.984009 22.2419C0.984009 23.3299 1.04801 24.3539 1.24001 25.3779C2.71201 35.6819 11.608 43.5539 22.296 43.5539C31.832 43.5539 39.832 37.4099 42.648 28.8339H35.992C33.56 33.9539 28.376 37.4739 22.296 37.4739Z" fill="#212121"/>
<path d="M52.1215 43.5539H58.2655V20.0659L52.1215 13.9219V43.5539ZM71.2575 20.0019L52.1215 0.929878V9.56988L71.2575 28.7059L73.5615 26.3379L75.5455 24.3539L83.9295 16.0339V43.5539H90.0735V1.18587L71.2575 20.0019Z" fill="#212121"/>
<path d="M124.792 19.2339H112.632C112.312 19.2339 111.928 19.2339 111.608 19.2339C111.352 19.2339 111.16 19.2339 110.968 19.2339C107.896 18.9139 105.528 16.3539 105.528 13.2179C105.528 9.88988 108.216 7.20188 111.544 7.20188H125.048C128.184 7.32988 130.68 9.76188 130.872 12.8979H137.016C136.952 10.8499 136.376 8.86588 135.416 7.20188C135.416 7.20188 135.416 7.20188 135.352 7.20188C133.304 3.61788 129.528 1.18587 125.112 1.05788C124.984 1.05788 124.92 1.05788 124.792 1.05788C124.728 1.05788 124.6 1.05788 124.472 1.05788H111.544C107.064 1.05788 103.096 3.55388 100.984 7.20188C99.96 8.99388 99.384 11.0419 99.384 13.2179C99.384 15.3939 99.96 17.5059 100.984 19.2339C101.496 20.1299 102.136 20.9619 102.84 21.6659C105.016 23.9699 108.152 25.3779 111.544 25.3779H124.792C128.12 25.3779 130.872 28.0659 130.872 31.3939C130.872 34.7219 128.12 37.4739 124.792 37.4739H111.608C108.344 37.4739 105.72 34.9139 105.528 31.7139H99.384C99.448 33.8259 100.024 35.7459 100.984 37.4739C103.096 41.1219 107.064 43.5539 111.608 43.5539H124.792C129.336 43.5539 133.304 41.1219 135.416 37.4739C136.376 35.6819 137.016 33.6339 137.016 31.3939C137.016 29.2179 136.376 27.1699 135.416 25.3779C133.304 21.7299 129.336 19.2339 124.792 19.2339Z" fill="#212121"/>
<path d="M71.257 19.9902L52.121 0.918243V9.59158L58.265 15.7022L71.257 28.6942L73.561 26.3262L75.545 24.3422L83.929 16.0222V43.5422H90.073V1.17424L71.257 19.9902Z" fill="#86DFBA"/>
</svg>
